<?xml version="1.0" standalone="no"?>
<!DOCTYPE svg PUBLIC "-//W3C//DTD SVG 20010904//EN"
 "http://www.w3.org/TR/2001/REC-SVG-20010904/DTD/svg10.dtd">
<svg version="1.0" xmlns="http://www.w3.org/2000/svg"
 width="756.000000pt" height="676.000000pt" viewBox="0 0 756.000000 676.000000"
 preserveAspectRatio="xMidYMid meet">

<g transform="translate(0.000000,676.000000) scale(0.100000,-0.100000)"
fill="#000000" stroke="none">
<path d="M3591 6579 c-179 -30 -368 -142 -488 -289 -60 -74 -134 -217 -158
-305 -25 -94 -31 -275 -11 -372 60 -295 276 -529 571 -619 79 -24 107 -28 225
-28 98 0 153 4 200 17 392 105 655 483 610 877 -23 204 -105 369 -254 508
-183 171 -448 252 -695 211z m259 -70 c163 -26 277 -86 405 -214 104 -103 161
-202 196 -340 21 -84 28 -226 14 -303 l-7 -43 -35 36 c-68 70 -163 88 -255 50
-16 -6 -18 -1 -18 36 -1 258 -203 507 -465 574 -110 28 -263 19 -367 -22 -57
-22 -166 -93 -202 -132 -17 -17 -33 -31 -38 -31 -18 0 61 109 127 176 167 169
414 251 645 213z m-231 -275 c104 -30 191 -153 191 -269 0 -147 -132 -275
-285 -275 -211 0 -344 249 -230 430 31 50 84 89 148 111 65 23 108 23 176 3z
m295 -136 c83 -85 119 -147 146 -254 49 -192 -7 -384 -153 -520 -265 -248
-692 -172 -847 151 -21 44 -44 108 -51 143 -23 122 4 272 69 377 27 44 107
131 134 146 15 8 15 4 -4 -38 -33 -74 -32 -200 4 -275 54 -115 168 -196 294
-206 78 -6 141 10 209 53 62 39 100 83 134 155 22 46 26 69 26 145 0 78 -4 97
-27 143 -15 28 -22 52 -16 52 5 0 42 -33 82 -72z m439 -480 c87 -62 69 -206
-30 -250 -52 -23 -102 -20 -143 10 -54 40 -76 132 -46 191 40 76 147 100 219
49z m-186 -311 c15 -8 48 -18 73 -22 l44 -8 -61 -58 c-69 -64 -208 -138 -308
-164 -95 -25 -218 -30 -310 -12 -86 16 -179 48 -211 72 -17 13 -16 13 16 4 19
-6 80 -10 135 -11 81 0 116 5 180 26 121 39 237 123 307 224 l30 43 38 -40
c22 -22 52 -46 67 -54z"/>
<path d="M4145 6221 c-45 -27 -65 -63 -65 -117 0 -39 5 -51 33 -79 86 -86 217
-31 217 91 0 49 -28 90 -76 110 -45 19 -73 18 -109 -5z m110 -74 c32 -46 4
-99 -52 -99 -51 0 -83 71 -45 104 35 31 73 29 97 -5z"/>
<path d="M5455 3683 c-43 -13 -67 -33 -177 -146 -71 -73 -128 -135 -128 -139
0 -3 28 23 62 58 33 35 66 64 71 64 9 0 -22 -36 -120 -142 -14 -15 -23 -33
-20 -40 4 -10 6 -10 6 1 1 15 47 61 62 61 5 0 9 5 9 11 0 12 40 48 53 49 4 0
-2 -10 -13 -22 -12 -13 -31 -40 -43 -60 -11 -21 -24 -38 -29 -38 -5 0 -13 -11
-18 -25 -5 -14 -14 -25 -20 -25 -5 0 -10 -4 -10 -10 0 -5 8 -7 18 -3 14 5 13
2 -5 -18 -12 -13 -26 -37 -32 -52 -6 -16 -15 -26 -19 -23 -5 3 -14 -11 -21
-30 -7 -19 -17 -32 -22 -28 -5 3 -6 10 -3 16 4 6 2 8 -4 5 -5 -4 -8 -16 -5
-26 5 -20 -35 -84 -47 -76 -4 3 -7 -1 -7 -8 2 -15 -34 -89 -48 -99 -7 -5 -7
-8 0 -8 6 0 2 -5 -8 -11 -9 -6 -15 -15 -11 -20 3 -6 -3 -13 -15 -16 -11 -3
-18 -9 -15 -14 3 -5 -2 -16 -10 -25 -9 -8 -16 -22 -16 -31 0 -9 -8 -22 -17
-29 -12 -9 -14 -13 -5 -14 20 0 -17 -57 -41 -64 -13 -3 -17 -10 -13 -24 4 -13
1 -22 -9 -26 -9 -3 -14 -10 -11 -15 6 -10 -38 -61 -53 -61 -26 0 -17 30 42
143 81 156 160 283 253 408 41 54 74 107 74 118 0 10 9 30 21 45 11 14 17 26
14 26 -9 0 -44 -42 -45 -53 0 -9 -90 -149 -101 -157 -12 -10 -107 -155 -126
-195 -22 -47 -43 -84 -59 -105 -6 -8 -35 -60 -64 -115 -29 -55 -54 -102 -56
-104 -7 -9 -444 -44 -452 -37 -2 3 3 39 13 80 9 42 14 80 10 85 -3 5 -1 12 4
16 5 3 10 13 10 23 0 9 14 80 31 157 17 77 35 160 40 185 5 25 21 101 36 170
17 80 27 161 27 224 l2 100 -54 38 c-30 21 -60 38 -67 38 -14 0 -135 -137
-157 -176 -7 -12 -36 -56 -66 -98 l-53 -76 -22 32 c-85 127 -344 199 -658 183
l-138 -7 0 45 c0 40 -4 48 -32 65 -18 11 -45 23 -60 27 -33 8 -42 -15 -33 -79
10 -66 -3 -82 -72 -90 -32 -4 -96 -17 -143 -28 -47 -12 -93 -21 -103 -20 -31
2 -462 -140 -477 -157 -3 -3 -14 -11 -25 -17 -38 -21 -31 -83 11 -103 23 -10
41 -6 163 43 75 31 190 71 256 89 133 38 362 83 372 74 6 -7 -23 -285 -37
-352 -5 -22 -16 -89 -25 -150 -16 -107 -45 -251 -86 -426 -16 -70 -24 -88 -41
-92 -17 -5 -19 -11 -14 -39 4 -18 7 -40 7 -48 1 -17 -35 -150 -87 -325 -32
-105 -148 -412 -173 -456 -6 -10 -33 -59 -61 -110 -160 -287 -329 -397 -539
-348 -50 11 -60 21 -100 99 -47 93 -54 135 -48 297 6 167 31 277 105 454 60
145 167 317 256 412 37 39 48 60 21 37 -9 -7 -18 -10 -21 -7 -7 7 40 52 103
100 74 56 52 63 -47 16 -74 -35 -133 -76 -125 -89 2 -4 -3 -14 -13 -21 -15
-13 -16 -12 -3 4 28 36 -7 15 -50 -30 -147 -153 -276 -411 -333 -665 -44 -196
-40 -300 17 -428 49 -109 168 -241 247 -273 14 -5 41 -17 60 -25 59 -26 121
-27 198 -3 39 12 76 29 83 37 6 8 16 14 21 14 5 0 36 23 69 52 40 34 58 57 54
67 -3 11 4 20 23 27 16 6 35 25 45 45 9 19 28 46 42 62 14 15 23 32 20 37 -3
6 -1 10 4 10 6 0 11 7 11 15 0 9 6 18 14 21 8 3 16 18 19 33 3 16 13 36 22 44
8 9 15 25 15 35 0 11 3 22 8 24 12 5 62 109 57 118 -3 4 2 13 10 20 8 7 15 24
15 38 0 14 7 33 15 42 21 23 37 80 23 80 -6 0 -3 8 6 19 9 10 18 34 20 52 2
19 13 54 25 78 13 24 21 54 18 67 -2 14 2 25 11 29 8 3 11 12 8 20 -3 8 0 15
7 15 8 0 8 3 -2 9 -7 5 -9 10 -3 12 6 2 11 18 13 34 2 17 7 35 12 42 5 7 5 18
1 24 -4 8 -3 9 4 5 8 -5 12 1 12 17 0 33 15 43 85 57 33 6 138 30 233 52 95
23 174 39 177 36 3 -3 -10 -38 -28 -79 -28 -59 -102 -235 -200 -469 -6 -14 -9
-29 -8 -34 1 -5 -4 -16 -12 -25 -26 -32 -74 -168 -115 -324 -24 -90 -25 -101
-11 -125 11 -19 27 -30 58 -36 39 -9 45 -7 61 14 10 13 21 40 24 59 3 20 33
117 66 216 33 99 69 209 79 245 18 61 192 488 227 557 9 17 16 35 14 39 -2 12
38 24 55 18 8 -4 15 -2 15 3 0 5 6 10 13 11 6 0 64 12 127 26 63 14 146 28
184 32 64 7 68 6 62 -12 -10 -34 -55 -416 -66 -559 -5 -77 -10 -199 -10 -270
0 -119 2 -131 20 -143 15 -9 19 -21 17 -47 -3 -44 -14 -45 -20 -2 -2 20 -4 12
-5 -23 -1 -50 0 -53 13 -36 15 19 15 19 16 -2 1 -12 2 -28 3 -34 4 -21 -6 -31
-15 -17 -12 19 -12 -2 2 -77 15 -87 39 -155 51 -148 7 4 8 2 4 -4 -16 -27 92
-162 130 -162 30 0 30 16 -1 72 -52 92 -91 381 -80 593 10 223 25 437 35 520
5 44 12 100 15 125 8 75 15 125 29 191 l13 64 79 7 c129 12 329 26 333 22 5
-4 -31 -94 -38 -94 -3 0 -7 -11 -7 -25 -1 -13 -9 -32 -18 -40 -9 -9 -16 -25
-16 -35 0 -10 -7 -31 -15 -46 -16 -32 -21 -64 -6 -48 5 5 35 71 67 147 56 136
74 161 97 138 8 -8 8 -11 -2 -11 -11 0 -11 -3 -1 -15 10 -12 10 -15 -1 -15 -8
0 -22 -20 -32 -45 -11 -25 -23 -43 -27 -40 -4 3 -6 -3 -4 -13 6 -22 -22 -91
-41 -98 -7 -3 -12 -11 -9 -18 3 -7 -2 -19 -10 -26 -9 -7 -13 -17 -10 -22 4 -6
3 -13 -2 -17 -33 -24 -174 -495 -157 -525 4 -7 1 -6 -7 1 -9 9 -9 33 5 118 9
59 14 109 11 112 -11 11 -26 -49 -37 -144 -16 -131 -8 -151 89 -245 86 -84
117 -98 220 -98 54 0 74 6 135 38 78 41 201 147 190 166 -3 6 -3 8 2 4 10 -9
99 81 120 122 25 48 29 29 9 -37 -9 -32 -20 -78 -25 -103 -4 -25 -14 -76 -23
-115 -9 -38 -19 -135 -22 -215 -5 -132 -3 -154 20 -245 46 -182 140 -334 229
-373 42 -19 42 -19 54 2 10 18 6 27 -34 69 -110 117 -169 356 -142 569 15 117
41 238 51 238 6 0 7 7 4 15 -3 9 -2 23 3 33 11 21 81 234 81 245 0 5 -5 5 -12
1 -7 -4 -8 -3 -4 5 4 6 12 9 17 6 9 -6 13 19 10 61 -1 11 10 32 24 48 14 15
26 35 27 44 0 9 2 22 2 29 1 6 11 22 23 35 19 20 42 70 60 133 4 11 11 23 17
27 8 5 7 8 -2 8 -8 0 -4 14 12 38 13 22 52 95 86 163 35 68 75 143 91 166 16
23 29 46 29 52 0 26 -26 63 -57 81 -49 29 -94 26 -125 -7 -30 -33 -78 -127
-78 -153 0 -11 -8 -23 -17 -28 -17 -10 -26 -33 -64 -167 -11 -38 -29 -83 -39
-100 -9 -16 -23 -48 -30 -70 -7 -22 -22 -51 -35 -65 -12 -14 -45 -59 -74 -101
-28 -42 -75 -103 -104 -135 -29 -33 -60 -70 -69 -84 -27 -42 -209 -230 -223
-230 -7 0 -18 -7 -26 -16 -24 -29 -107 -64 -152 -64 -82 0 -121 56 -112 160 7
86 30 193 51 244 6 15 4 17 -6 11 -9 -6 -8 -1 3 14 8 13 13 30 10 39 -4 8 2
21 12 28 10 8 15 20 11 29 -8 22 98 303 121 322 10 8 12 12 6 8 -8 -4 -13 0
-13 10 0 11 5 15 15 11 15 -6 20 8 16 51 -1 18 2 21 16 17 13 -4 14 -3 5 3
-10 8 -10 16 1 41 7 18 15 31 18 29 2 -3 39 -7 82 -10 l77 -7 0 28 c0 43 -26
71 -71 78 l-40 7 26 27 c16 17 23 33 19 43 -3 10 -1 17 6 17 6 0 9 4 6 9 -3 5
8 27 24 50 17 22 30 45 30 51 0 5 4 10 10 10 9 0 42 54 39 66 0 3 11 19 25 35
15 16 24 34 21 39 -3 6 0 10 7 10 7 0 24 17 37 38 54 83 85 128 95 137 7 6 25
28 41 50 104 143 278 323 358 372 32 19 59 34 61 32 1 -2 9 -44 17 -94 l15
-90 39 1 c55 2 85 39 85 102 -1 113 -29 169 -99 198 -43 18 -152 17 -216 -3z
m-1265 -169 c-44 -58 -89 -122 -101 -141 -12 -19 -24 -32 -26 -29 -3 3 13 33
36 67 22 34 41 63 41 66 0 5 121 143 126 143 2 0 -33 -48 -76 -106z m63 31
c-16 -22 -33 -32 -33 -20 0 5 42 45 47 45 2 0 -4 -11 -14 -25z m-872 -43 c-7
-2 -18 1 -23 6 -8 8 -4 9 13 5 13 -4 18 -8 10 -11z m59 8 c0 -5 -10 -10 -22
-10 -19 0 -20 2 -8 10 19 13 30 13 30 0z m45 0 c3 -5 1 -10 -4 -10 -6 0 -11 5
-11 10 0 6 2 10 4 10 3 0 8 -4 11 -10z m-208 -6 c-3 -3 -12 -4 -19 -1 -8 3 -5
6 6 6 11 1 17 -2 13 -5z m40 0 c-3 -3 -12 -4 -19 -1 -8 3 -5 6 6 6 11 1 17 -2
13 -5z m273 -3 c0 -5 -14 -8 -31 -6 -45 6 -49 15 -6 15 21 0 37 -4 37 -9z m60
-3 c0 -4 -9 -8 -20 -8 -11 0 -20 4 -20 8 0 4 9 8 20 8 11 0 20 -4 20 -8z m556
-10 c-9 -13 -19 -31 -23 -40 -3 -10 -9 -18 -13 -18 -10 0 -70 -87 -70 -100 0
-5 -11 -20 -25 -34 -14 -14 -25 -31 -25 -38 0 -8 -10 -22 -21 -32 -18 -15 -19
-20 -8 -27 11 -7 10 -9 -4 -9 -11 0 -20 -10 -23 -30 -4 -16 -10 -30 -15 -30
-5 0 -9 -7 -9 -15 0 -9 -7 -18 -15 -21 -8 -4 -15 -12 -15 -19 0 -7 -7 -16 -16
-19 -9 -3 -14 -13 -10 -21 3 -8 1 -17 -3 -19 -5 -3 -11 -19 -14 -36 -4 -19
-13 -30 -23 -30 -10 0 -15 -3 -11 -6 3 -3 -3 -15 -14 -27 -10 -11 -19 -33 -19
-49 0 -15 -3 -28 -8 -28 -11 0 -34 -58 -27 -70 3 -5 2 -10 -4 -10 -14 0 -41
-29 -41 -44 0 -7 7 -13 16 -13 19 0 88 132 78 150 -4 7 -4 9 1 5 9 -8 55 56
55 76 0 8 6 16 14 19 18 7 68 116 59 130 -3 5 -1 7 5 4 6 -4 34 30 66 80 30
49 78 117 106 153 28 36 61 81 73 100 33 52 32 21 -2 -134 -17 -75 -31 -149
-31 -164 0 -16 -4 -32 -9 -38 -9 -9 -91 -416 -91 -453 0 -12 -6 -39 -12 -61
-12 -37 -16 -40 -58 -45 -25 -4 -116 -19 -202 -34 -87 -15 -158 -25 -158 -21
0 3 6 14 13 25 7 11 29 54 49 96 27 58 32 76 20 76 -13 0 -45 -57 -54 -96 -2
-8 -11 -23 -20 -33 -10 -10 -18 -24 -18 -32 0 -8 -13 -24 -30 -36 -33 -24 -41
-11 -11 19 11 11 17 22 14 25 -4 3 0 14 8 23 15 17 39 68 39 80 0 3 -7 -1 -16
-8 -9 -7 7 33 35 89 28 57 49 108 45 114 -4 6 -3 8 3 5 5 -3 21 16 33 44 13
28 28 53 33 56 10 6 -20 -68 -34 -81 -12 -13 -12 -26 0 -26 5 0 14 13 19 30
11 30 160 291 172 300 3 3 9 13 13 23 3 9 20 36 37 60 17 23 54 78 82 122 51
81 115 165 125 165 3 0 -2 -10 -11 -22z m-506 2 c13 -9 13 -10 0 -10 -8 0 -22
5 -30 10 -13 9 -13 10 0 10 8 0 22 -5 30 -10z m1600 -4 c0 -3 -4 -8 -10 -11
-5 -3 -10 -1 -10 4 0 6 5 11 10 11 6 0 10 -2 10 -4z m-2257 -13 c-7 -2 -19 -2
-25 0 -7 3 -2 5 12 5 14 0 19 -2 13 -5z m-44 -7 c-12 -10 -60 -16 -54 -6 3 5
18 10 32 10 15 0 24 -2 22 -4z m498 -2 c-3 -3 -12 -4 -19 -1 -8 3 -5 6 6 6 11
1 17 -2 13 -5z m93 -4 c8 -5 11 -10 5 -10 -5 0 -17 5 -25 10 -8 5 -10 10 -5
10 6 0 17 -5 25 -10z m-660 -10 c0 -5 -7 -7 -15 -4 -8 4 -15 8 -15 10 0 2 7 4
15 4 8 0 15 -4 15 -10z m745 0 c3 -5 1 -10 -4 -10 -6 0 -11 5 -11 10 0 6 2 10
4 10 3 0 8 -4 11 -10z m-805 -10 c-34 -11 -60 -11 -35 0 11 5 29 8 40 8 16 0
15 -2 -5 -8z m860 -40 c87 -25 192 -75 220 -105 l20 -22 -26 -49 c-15 -27 -33
-56 -39 -64 -7 -8 -26 -40 -42 -70 -17 -30 -47 -84 -68 -120 -21 -36 -70 -128
-109 -205 -40 -77 -77 -149 -83 -160 -6 -11 -27 -54 -47 -96 -35 -76 -37 -77
-79 -82 -92 -12 -105 -15 -125 -26 -12 -6 -25 -10 -29 -9 -4 1 -26 -2 -48 -6
-22 -5 -94 -19 -160 -32 -122 -23 -139 -21 -128 15 3 12 2 12 -7 -2 -6 -9 -15
-15 -21 -12 -12 8 15 35 35 35 9 0 16 3 17 8 0 4 2 14 4 22 14 61 24 124 20
128 -2 3 2 14 10 25 11 15 12 24 4 34 -9 9 -7 14 6 19 13 5 14 9 3 15 -10 7
-10 11 -1 17 12 8 31 106 63 322 25 166 28 188 41 306 6 55 14 106 18 112 23
37 423 38 551 2z m71 12 c-7 -2 -18 1 -23 6 -8 8 -4 9 13 5 13 -4 18 -8 10
-11z m1391 -104 c-7 -7 -12 -8 -12 -2 0 14 12 26 19 19 2 -3 -1 -11 -7 -17z
m-1193 -75 c-18 -32 -42 -71 -54 -88 -12 -16 -39 -61 -59 -100 -20 -38 -46
-81 -57 -95 -25 -30 14 44 119 223 41 70 77 126 79 123 3 -3 -10 -31 -28 -63z
m208 -195 c-3 -7 -5 -2 -5 12 0 14 2 19 5 13 2 -7 2 -19 0 -25z m-2 -48 c-8
-13 -86 -411 -86 -442 0 -22 -15 -24 -22 -4 -7 19 3 87 12 81 4 -2 7 11 7 29
0 35 21 141 33 166 4 8 8 37 10 64 1 27 9 59 17 71 8 13 14 27 13 31 -3 18 1
25 11 19 6 -4 8 -10 5 -15z m-392 -205 c-3 -9 -8 -14 -10 -11 -3 3 -2 9 2 15
9 16 15 13 8 -4z m-839 -84 c-4 -17 -9 -30 -11 -27 -3 2 -2 19 2 36 9 41 17
33 9 -9z m809 24 c-3 -9 -8 -14 -10 -11 -3 3 -2 9 2 15 9 16 15 13 8 -4z m-52
-92 c-12 -20 -14 -14 -5 12 4 9 9 14 11 11 3 -2 0 -13 -6 -23z m-791 -98 c-13
-58 -25 -103 -27 -101 -3 2 6 51 19 109 12 58 24 104 27 102 2 -3 -6 -52 -19
-110z m665 -25 c-14 -29 -28 -50 -31 -48 -2 3 8 28 23 56 15 29 28 50 30 48 3
-2 -8 -27 -22 -56z m1105 30 c3 -2 -31 -7 -75 -11 -44 -4 -102 -10 -130 -13
-27 -3 -79 -8 -115 -10 -36 -3 -91 -8 -122 -11 -46 -5 -58 -3 -58 8 0 20 30
27 125 28 44 0 91 4 104 8 24 6 261 7 271 1z m130 -10 c11 -7 5 -10 -23 -10
-23 0 -36 4 -32 10 8 13 35 13 55 0z m-1839 -33 c-10 -9 -11 -8 -5 6 3 10 9
15 12 12 3 -3 0 -11 -7 -18z m1106 -12 c-8 -18 -28 -20 -24 -2 2 13 19 28 25
22 3 -2 2 -11 -1 -20z m-39 3 c-7 -19 -79 -40 -94 -27 -9 7 -14 8 -14 1 0 -6
-26 -13 -57 -16 -32 -3 -74 -7 -93 -10 -19 -2 -45 -4 -58 -5 -13 -1 -21 -4
-19 -8 3 -5 -18 -8 -46 -9 -71 -1 -1 23 133 46 36 6 97 17 135 24 92 18 118
19 113 4z m-1081 -60 c-3 -7 -5 -2 -5 12 0 14 2 19 5 13 2 -7 2 -19 0 -25z
m1117 -20 c3 -17 4 -33 1 -36 -3 -3 -6 3 -6 14 -1 10 -5 1 -9 -21 -5 -25 -4
-41 2 -44 7 -2 7 -6 0 -10 -19 -12 -60 -372 -68 -606 -3 -82 -9 -165 -14 -182
-5 -20 -5 -33 1 -33 5 0 9 -9 9 -20 0 -12 -5 -17 -14 -14 -11 4 -14 33 -15
126 -1 66 2 118 6 115 4 -3 8 38 9 91 1 166 14 305 54 562 5 36 10 71 10 78 0
26 28 10 34 -20z m-1197 -10 c-3 -8 -6 -5 -6 6 -1 11 2 17 5 13 3 -3 4 -12 1
-19z m690 6 c-3 -3 -12 -4 -19 -1 -8 3 -5 6 6 6 11 1 17 -2 13 -5z m-664 -34
c-3 -12 -8 -19 -11 -16 -5 6 5 36 12 36 2 0 2 -9 -1 -20z m562 10 c-3 -5 -14
-10 -23 -10 -15 0 -15 2 -2 10 20 13 33 13 25 0z m1220 -9 c-8 -14 -25 -14
-25 0 0 5 5 7 10 4 6 -3 10 -1 10 6 0 7 3 10 6 6 3 -3 3 -10 -1 -16z m-1174
-88 c-11 -22 -27 -45 -35 -52 -9 -8 -16 -24 -16 -38 0 -35 -29 -88 -42 -75
-11 11 61 184 74 176 4 -3 5 2 2 11 -6 14 -8 14 -19 -2 -7 -10 -18 -35 -24
-55 -11 -34 -31 -61 -31 -41 1 24 57 117 73 119 11 1 22 5 25 9 16 15 11 -17
-7 -52z m-664 -47 c-3 -7 -19 -65 -36 -127 -17 -63 -36 -127 -42 -144 -6 -16
-17 -52 -24 -80 -7 -27 -32 -99 -55 -160 -24 -60 -48 -123 -54 -140 -6 -16
-16 -39 -22 -50 -6 -11 -17 -38 -24 -60 -7 -22 -21 -53 -30 -70 -81 -143 -116
-192 -86 -122 28 67 50 107 58 107 4 0 8 4 8 10 0 5 16 44 36 87 40 88 47 103
64 153 7 19 19 49 26 65 28 65 164 504 164 529 0 9 5 16 11 16 6 0 9 -6 6 -14z
m1253 -36 c0 -5 -5 -10 -11 -10 -5 0 -7 5 -4 10 3 6 8 10 11 10 2 0 4 -4 4
-10z m-1249 -33 c-10 -9 -11 -8 -5 6 3 10 9 15 12 12 3 -3 0 -11 -7 -18z m43
-22 c-4 -8 -8 -15 -10 -15 -2 0 -4 7 -4 15 0 8 4 15 10 15 5 0 7 -7 4 -15z
m501 -26 c-4 -13 -3 -19 3 -15 15 9 11 -42 -4 -55 -8 -6 -12 -14 -10 -18 2 -3
-5 -14 -15 -25 -17 -18 -18 -17 -12 5 4 15 3 20 -5 15 -8 -5 -10 -1 -5 9 4 12
8 13 13 5 5 -8 12 0 19 21 6 18 9 35 6 37 -3 3 -5 -1 -5 -8 0 -7 -2 -11 -5 -8
-6 5 15 58 22 58 3 0 1 -10 -2 -21z m1163 1 c3 -7 0 -10 -7 -6 -7 5 -11 -4
-11 -26 -1 -38 -34 -141 -43 -132 -3 3 -3 -4 0 -17 5 -16 3 -20 -6 -14 -10 5
-11 2 -6 -14 3 -12 2 -21 -4 -21 -13 0 -34 -77 -28 -101 3 -11 2 -17 -3 -14
-9 5 -20 -28 -20 -61 0 -12 -9 -33 -20 -47 -15 -18 -17 -28 -9 -33 8 -4 9 -3
5 4 -4 7 -2 12 3 12 14 0 14 -27 0 -36 -6 -3 -9 -19 -7 -35 6 -41 -10 -36 -17
5 -8 38 39 269 55 274 6 2 8 8 4 13 -3 5 0 9 5 9 6 0 11 7 11 16 0 9 16 67 36
130 33 105 50 131 62 94z m817 10 c3 -5 1 -10 -4 -10 -6 0 -11 5 -11 10 0 6 2
10 4 10 3 0 8 -4 11 -10z m-2542 -30 c-3 -12 -8 -19 -11 -16 -5 6 5 36 12 36
2 0 2 -9 -1 -20z m1264 -52 c-3 -7 -5 -2 -5 12 0 14 2 19 5 13 2 -7 2 -19 0
-25z m-1296 -45 c-12 -20 -14 -14 -5 12 4 9 9 14 11 11 3 -2 0 -13 -6 -23z
m-951 -23 c-6 -12 -14 -20 -17 -17 -2 3 1 14 8 26 7 11 15 18 17 16 2 -2 -2
-13 -8 -25z m987 -22 c-3 -8 -6 -5 -6 6 -1 11 2 17 5 13 3 -3 4 -12 1 -19z
m509 -24 c-5 -22 -11 -33 -17 -27 -5 5 -4 21 3 41 15 40 22 33 14 -14z m1994
26 c-6 -11 -13 -20 -16 -20 -2 0 0 9 6 20 6 11 13 20 16 20 2 0 0 -9 -6 -20z
m-3449 -23 c-10 -9 -11 -8 -5 6 3 10 9 15 12 12 3 -3 0 -11 -7 -18z m3285 -9
c-11 -15 -16 -18 -16 -7 0 16 21 42 28 34 2 -2 -3 -14 -12 -27z m124 22 c0 -5
-5 -10 -11 -10 -5 0 -7 5 -4 10 3 6 8 10 11 10 2 0 4 -4 4 -10z m-1223 -82
c-2 -13 -4 -3 -4 22 0 25 2 35 4 23 2 -13 2 -33 0 -45z m1199 37 c-3 -27 -26
-60 -26 -38 0 15 18 63 24 63 3 0 3 -11 2 -25z m-3477 -37 c-22 -56 -37 -79
-24 -39 12 39 35 91 40 91 3 0 -5 -24 -16 -52z m3312 -16 c-5 -9 -19 -26 -32
-37 -19 -16 -18 -13 5 18 30 39 43 49 27 19z m126 -82 c-11 -34 -16 -41 -22
-28 -4 11 1 37 11 63 23 55 31 30 11 -35z m-54 18 c-6 -7 -16 -38 -23 -68 -7
-30 -18 -69 -25 -86 -8 -18 -17 -49 -20 -70 -4 -22 -10 -50 -15 -64 -12 -36
-20 -114 -10 -104 4 5 15 34 25 64 10 30 21 59 26 64 15 16 20 -19 8 -50 -7
-16 -11 -34 -10 -41 1 -6 -3 -14 -8 -17 -5 -3 -7 -24 -4 -45 5 -33 1 -43 -19
-63 -23 -21 -25 -29 -21 -83 3 -33 7 -62 9 -64 3 -3 -6 -11 -18 -18 l-23 -13
23 -6 c12 -3 22 -10 22 -15 0 -14 -30 -23 -40 -13 -18 18 -8 324 11 324 5 0 9
20 9 44 0 25 5 48 10 51 6 4 9 19 6 35 -2 16 2 40 9 54 8 15 10 26 4 26 -6 0
-7 5 -4 10 4 6 11 8 16 5 5 -4 9 1 9 10 0 10 -5 13 -12 9 -7 -4 -6 1 3 12 9
10 20 37 24 59 3 22 14 48 22 58 18 19 32 15 16 -5z m-174 -56 c-24 -25 -45
-49 -46 -51 -2 -2 -6 -2 -9 2 -7 6 88 107 95 100 3 -2 -15 -25 -40 -51z m81
54 c0 -2 -8 -10 -17 -17 -16 -13 -17 -12 -4 4 13 16 21 21 21 13z m-40 -40 c0
-2 -8 -10 -17 -17 -16 -13 -17 -12 -4 4 13 16 21 21 21 13z m-3300 -21 c0 -8
-4 -15 -10 -15 -5 0 -7 7 -4 15 4 8 8 15 10 15 2 0 4 -7 4 -15z m3460 -31 c0
-8 -4 -14 -10 -14 -5 0 -7 -7 -3 -16 3 -8 -4 -29 -16 -45 -15 -20 -20 -36 -15
-54 5 -20 3 -24 -10 -19 -19 7 -19 4 -5 59 6 25 15 42 20 39 5 -3 10 1 10 8 1
7 2 18 4 23 1 6 3 18 3 28 2 21 22 13 22 -9z m-1143 -31 c-3 -10 -5 -4 -5 12
0 17 2 24 5 18 2 -7 2 -21 0 -30z m921 2 c-6 -14 -13 -23 -16 -21 -7 7 9 46
18 46 5 0 4 -11 -2 -25z m-2238 11 c0 -3 -4 -8 -10 -11 -5 -3 -10 -1 -10 4 0
6 5 11 10 11 6 0 10 -2 10 -4z m-1023 -28 c-3 -8 -6 -5 -6 6 -1 11 2 17 5 13
3 -3 4 -12 1 -19z m966 7 c-3 -9 -8 -14 -10 -11 -3 3 -2 9 2 15 9 16 15 13 8
-4z m1344 -52 c-3 -10 -5 -4 -5 12 0 17 2 24 5 18 2 -7 2 -21 0 -30z m-1377
-31 c0 -5 -7 -17 -15 -28 -14 -18 -14 -17 -4 9 12 27 19 34 19 19z m40 -22 c0
-5 -5 -10 -11 -10 -5 0 -7 5 -4 10 3 6 8 10 11 10 2 0 4 -4 4 -10z m1357 -62
c-3 -8 -6 -5 -6 6 -1 11 2 17 5 13 3 -3 4 -12 1 -19z m-1431 3 c-3 -4 -10 -21
-16 -36 -6 -15 -13 -25 -16 -22 -6 6 23 67 32 67 3 0 3 -4 0 -9z m1431 -78
c-3 -10 -5 -2 -5 17 0 19 2 27 5 18 2 -10 2 -26 0 -35z m-1481 -39 c-4 -9 -9
-15 -11 -12 -3 3 -3 13 1 22 4 9 9 15 11 12 3 -3 3 -13 -1 -22z m-46 -73 c-5
-11 -15 -23 -22 -27 -7 -5 -8 -2 -3 7 21 37 44 55 25 20z m1467 -53 c1 -7 9
-48 18 -91 9 -43 15 -81 12 -83 -2 -2 -12 33 -22 78 -10 46 -20 89 -22 96 -3
6 -1 12 4 12 5 0 10 -6 10 -12z m-1602 -118 c-3 -5 -12 -10 -18 -10 -7 0 -6 4
3 10 19 12 23 12 15 0z m-5 -35 c-7 -9 -15 -13 -19 -10 -3 3 1 10 9 15 21 14
24 12 10 -5z m-35 -15 c-3 -5 -12 -10 -18 -10 -7 0 -6 4 3 10 19 12 23 12 15
0z m-105 -84 c0 -2 -7 -7 -16 -10 -8 -3 -12 -2 -9 4 6 10 25 14 25 6z"/>
<path d="M3741 2784 c-39 -84 -60 -134 -56 -134 9 0 76 141 73 152 -2 6 -10
-3 -17 -18z"/>
<path d="M5141 1374 c0 -11 3 -14 6 -6 3 7 2 16 -1 19 -3 4 -6 -2 -5 -13z"/>
<path d="M5099 3343 c-13 -16 -12 -17 4 -4 16 13 21 21 13 21 -2 0 -10 -8 -17
-17z"/>
<path d="M4685 2699 c-4 -6 -5 -12 -2 -15 2 -3 7 2 10 11 7 17 1 20 -8 4z"/>
<path d="M4496 2177 c3 -10 9 -15 12 -12 3 3 0 11 -7 18 -10 9 -11 8 -5 -6z"/>
<path d="M4636 2165 c-9 -26 -7 -32 5 -12 6 10 9 21 6 23 -2 3 -7 -2 -11 -11z"/>
<path d="M4481 2148 c0 -9 -4 -25 -7 -35 -5 -17 -5 -17 6 0 6 10 9 25 7 35 -4
15 -5 15 -6 0z"/>
<path d="M4431 2005 c-8 -27 -17 -54 -20 -60 -8 -12 -14 -65 -8 -65 9 0 48
141 45 158 -2 10 -10 -5 -17 -33z"/>
<path d="M4586 2023 c-6 -14 -5 -15 5 -6 7 7 10 15 7 18 -3 3 -9 -2 -12 -12z"/>
</g>
</svg>
