<?xml version="1.0" standalone="no"?>
<!DOCTYPE svg PUBLIC "-//W3C//DTD SVG 20010904//EN"
 "http://www.w3.org/TR/2001/REC-SVG-20010904/DTD/svg10.dtd">
<svg version="1.0" xmlns="http://www.w3.org/2000/svg"
 width="992.000000pt" height="594.000000pt" viewBox="0 0 992.000000 594.000000"
 preserveAspectRatio="xMidYMid meet">

<g transform="translate(0.000000,594.000000) scale(0.100000,-0.100000)"
fill="#000000" stroke="none">
<path d="M7455 5003 c-11 -3 -24 -9 -29 -14 -6 -5 -17 -9 -25 -9 -54 0 -94
-25 -197 -124 -96 -92 -107 -106 -95 -120 12 -15 6 -25 -57 -87 -40 -39 -72
-77 -72 -84 0 -7 -18 -29 -41 -48 -26 -24 -39 -42 -36 -54 4 -16 5 -16 12 2 9
22 82 95 95 95 4 0 7 8 6 17 0 9 9 22 20 28 12 6 29 17 38 24 8 7 21 11 28 8
9 -4 7 -6 -3 -6 -9 -1 -20 -12 -23 -26 -4 -14 -11 -25 -17 -25 -5 0 -18 -18
-28 -40 -9 -21 -31 -52 -48 -67 -17 -15 -33 -37 -35 -48 -2 -11 -13 -24 -26
-30 -30 -13 -28 -29 3 -21 31 8 32 -4 2 -31 -13 -11 -34 -41 -47 -67 -15 -31
-27 -45 -36 -42 -8 3 -14 -1 -14 -10 0 -30 -32 -85 -46 -80 -10 4 -14 -2 -14
-18 0 -13 -17 -46 -38 -73 -38 -48 -122 -188 -122 -203 0 -4 -7 -11 -15 -14
-9 -3 -15 -11 -14 -18 4 -29 -2 -38 -26 -38 -17 0 -23 -4 -19 -15 3 -8 -1 -21
-9 -30 -8 -8 -18 -32 -22 -54 -5 -28 -12 -41 -28 -46 -19 -5 -20 -7 -5 -13 16
-6 15 -11 -10 -49 -15 -24 -33 -43 -41 -43 -21 0 -41 -33 -29 -47 12 -15 2
-33 -18 -33 -8 0 -14 -10 -14 -25 0 -16 -13 -39 -35 -60 -38 -39 -42 -40 -68
-21 -17 13 -13 23 59 162 42 82 79 154 83 159 18 24 72 125 67 125 -12 0 -46
-45 -46 -61 0 -10 -11 -31 -25 -48 -14 -16 -56 -88 -93 -159 -37 -71 -74 -139
-82 -151 -20 -29 -65 -38 -256 -51 -87 -5 -215 -15 -284 -20 -68 -6 -129 -9
-136 -6 -7 3 -8 20 -4 53 11 69 29 153 36 164 3 6 0 17 -7 25 -10 12 -9 17 6
28 12 8 16 19 12 30 -4 10 0 30 8 44 8 15 21 70 29 122 9 52 22 124 31 160 19
81 33 155 39 200 2 19 12 55 20 78 9 24 23 85 32 135 9 51 23 128 31 172 8 44
17 134 20 201 l5 121 -47 41 c-26 23 -54 42 -61 42 -8 0 -14 4 -14 10 0 15
-59 42 -78 35 -21 -7 -206 -229 -211 -253 -2 -9 -14 -28 -27 -41 -13 -13 -34
-40 -46 -60 -11 -20 -26 -40 -33 -46 -6 -5 -18 -21 -26 -36 -28 -51 -54 -89
-60 -89 -4 0 -9 10 -13 23 -17 66 -156 175 -281 218 -117 40 -143 46 -330 70
-143 18 -195 20 -325 14 -85 -4 -179 -8 -208 -9 l-53 -1 -4 63 c-5 74 -6 76
-55 107 -49 31 -109 43 -121 24 -5 -8 -8 -58 -8 -112 1 -54 -3 -103 -8 -108
-5 -5 -68 -19 -139 -30 -71 -11 -167 -30 -214 -43 -47 -13 -107 -26 -135 -29
-27 -3 -70 -12 -95 -20 -25 -8 -79 -25 -120 -37 -106 -31 -246 -79 -278 -96
-15 -8 -37 -14 -49 -14 -12 0 -24 -4 -27 -9 -4 -5 -31 -17 -61 -26 -30 -10
-55 -22 -55 -26 0 -5 -16 -15 -35 -23 -33 -14 -35 -18 -35 -63 0 -57 5 -64 49
-86 44 -22 48 -22 107 7 27 13 74 34 104 46 30 12 70 29 88 37 127 56 436 143
647 183 61 11 132 25 158 30 85 17 80 24 72 -102 -4 -61 -11 -125 -16 -142 -5
-17 -12 -69 -15 -116 -3 -47 -14 -128 -25 -180 -11 -52 -26 -142 -34 -200 -19
-146 -34 -220 -100 -520 -56 -255 -56 -254 -88 -258 -24 -3 -27 -8 -27 -38 0
-19 8 -46 17 -60 14 -22 15 -29 3 -47 -12 -20 -22 -55 -55 -187 -8 -30 -21
-80 -30 -110 -9 -30 -20 -70 -25 -88 -4 -19 -13 -46 -18 -60 -6 -15 -20 -61
-32 -102 -12 -41 -25 -84 -30 -95 -4 -11 -16 -42 -25 -70 -16 -44 -38 -99 -65
-160 -5 -11 -19 -45 -30 -75 -12 -30 -26 -64 -31 -75 -5 -11 -17 -44 -29 -72
-11 -29 -31 -71 -45 -93 -25 -39 -62 -106 -111 -200 -13 -26 -40 -64 -60 -86
-19 -21 -41 -52 -48 -69 -21 -49 -194 -206 -267 -242 -113 -57 -245 -78 -340
-53 -22 6 -57 15 -79 20 -43 12 -76 51 -123 147 -57 120 -62 150 -61 398 l0
230 42 155 c22 85 54 185 71 221 16 36 41 98 55 138 25 72 96 212 122 242 8 8
14 18 14 22 0 3 31 52 69 109 64 97 168 223 198 241 7 4 13 15 13 24 0 15 -2
15 -18 0 -21 -19 -32 -22 -32 -8 0 11 99 107 133 130 46 31 89 72 83 78 -16
16 -199 -65 -272 -122 -67 -51 -214 -185 -214 -196 0 -5 -19 -35 -43 -66 -40
-54 -136 -210 -201 -328 -67 -120 -153 -380 -192 -575 -37 -190 -41 -360 -10
-445 8 -22 15 -46 16 -53 0 -8 20 -55 46 -105 45 -93 109 -183 173 -247 52
-52 172 -140 201 -147 14 -3 45 -15 70 -27 60 -28 248 -30 295 -3 17 9 40 17
52 17 12 0 38 14 56 30 19 17 41 30 50 30 8 0 39 23 68 50 30 28 69 65 87 82
23 22 30 34 22 43 -12 15 -5 23 38 41 19 7 36 23 39 34 3 11 12 20 19 20 8 0
14 10 14 24 0 14 14 39 31 58 58 62 61 67 55 76 -3 5 1 15 9 22 8 7 15 19 15
26 0 8 9 19 20 26 11 7 20 20 20 29 0 25 38 105 47 99 4 -3 9 8 11 24 2 16 12
38 23 49 10 11 19 27 19 36 0 8 14 39 31 69 16 29 28 59 26 65 -3 7 5 22 16
34 11 13 21 38 22 57 1 19 12 48 25 66 28 40 44 102 27 112 -8 5 -6 13 8 28
22 25 45 103 38 131 -3 11 -1 19 5 19 24 0 65 140 49 166 -4 7 2 14 14 17 17
5 20 11 17 31 -3 14 -1 26 5 26 5 0 4 6 -2 14 -10 11 -8 16 6 20 14 4 18 16
17 51 0 25 3 48 8 51 4 3 8 16 8 30 0 14 4 22 10 19 6 -4 10 7 10 24 0 42 28
67 92 80 226 45 270 55 423 95 145 37 235 53 235 42 0 -7 -21 -56 -65 -151
-13 -27 -53 -122 -90 -210 -132 -319 -197 -470 -205 -479 -5 -5 -6 -15 -3 -22
3 -8 1 -20 -5 -27 -25 -30 -60 -105 -67 -142 -4 -22 -10 -44 -13 -50 -7 -10
-50 -131 -82 -225 -10 -30 -22 -77 -26 -105 -4 -27 -13 -60 -21 -72 -12 -18
-13 -29 -4 -56 19 -56 49 -77 124 -84 63 -5 67 -5 67 14 0 11 6 26 14 32 7 6
16 32 20 56 5 39 37 146 113 380 9 28 23 61 30 75 7 14 13 31 13 38 0 7 4 20
9 30 11 21 36 100 62 200 11 40 24 81 29 90 13 23 50 110 50 116 0 3 11 29 24
58 14 29 50 114 81 188 31 74 60 144 65 155 5 11 23 58 41 105 18 47 38 92 45
101 8 8 15 25 17 37 4 30 9 32 53 34 22 1 44 8 51 17 8 11 12 12 13 3 0 -8 5
-9 18 -3 9 6 62 19 117 31 55 12 118 25 140 30 36 9 99 19 231 37 25 3 44 1
48 -6 4 -6 -4 -93 -18 -193 -61 -450 -86 -755 -86 -1048 l0 -205 30 -24 c32
-25 39 -58 18 -80 -10 -11 -10 -14 0 -18 16 -6 15 -23 -2 -23 -9 0 -16 19 -21
53 -5 28 -10 43 -12 32 -2 -11 1 -47 5 -80 8 -53 10 -57 19 -36 12 30 20 19
27 -41 6 -48 -8 -73 -25 -47 -29 45 20 -214 58 -310 36 -92 70 -140 161 -233
35 -36 92 -40 92 -7 0 11 -9 32 -20 46 -45 57 -83 198 -105 388 -8 66 -19 161
-25 211 -16 134 19 911 49 1089 5 33 12 101 13 151 2 51 9 98 16 106 6 8 11
28 11 44 0 37 18 151 31 188 6 16 10 39 10 52 0 26 13 30 135 38 39 2 122 9
185 15 63 6 157 12 208 14 104 5 106 3 72 -68 -11 -22 -19 -46 -20 -53 0 -7
-6 -15 -14 -18 -8 -3 -13 -11 -10 -18 7 -17 -10 -57 -34 -82 -12 -12 -19 -24
-17 -26 9 -8 -17 -83 -31 -91 -8 -5 -11 -13 -8 -19 4 -6 1 -14 -6 -18 -13 -8
-7 -40 8 -40 4 0 14 17 21 38 7 20 19 51 26 67 8 17 41 95 75 175 33 80 65
149 69 153 11 11 71 -1 71 -14 0 -5 -8 -9 -17 -9 -13 0 -14 -3 -5 -12 16 -16
15 -29 0 -27 -31 4 -39 -2 -33 -20 3 -12 -6 -41 -25 -75 -16 -31 -30 -67 -30
-79 0 -13 -7 -32 -15 -43 -8 -10 -15 -25 -15 -32 0 -23 -34 -59 -50 -54 -13 5
-13 3 -1 -12 12 -14 11 -20 -8 -40 -12 -13 -19 -30 -16 -39 4 -10 -1 -20 -14
-27 -12 -6 -21 -18 -21 -27 0 -10 -15 -58 -34 -108 -19 -49 -44 -124 -56 -165
-12 -41 -33 -102 -46 -134 -22 -52 -42 -138 -61 -251 -2 -16 -9 -40 -16 -53
-9 -19 -8 -25 3 -32 8 -5 11 -12 7 -17 -11 -11 -27 17 -27 47 0 23 18 157 36
269 8 51 -9 50 -24 -2 -17 -58 -35 -175 -29 -191 3 -8 2 -18 -3 -21 -14 -9
-11 -145 3 -177 17 -38 214 -237 257 -259 51 -26 151 -42 228 -37 70 5 108 20
224 85 83 47 239 197 231 221 -3 12 -2 13 4 5 11 -15 139 113 174 175 22 39
49 52 40 21 -2 -8 -10 -36 -18 -64 -14 -48 -20 -75 -58 -245 -57 -260 -70
-553 -32 -725 63 -285 207 -531 352 -599 30 -15 56 -26 58 -26 3 0 12 11 21
26 17 25 17 26 -36 83 -46 50 -127 169 -128 189 -1 4 -9 25 -20 47 -11 22 -19
48 -20 57 0 9 -4 20 -10 23 -5 3 -10 14 -10 24 0 10 -6 41 -14 67 -30 101 -46
215 -33 235 9 15 9 23 -1 39 -15 25 -16 50 -1 50 6 0 9 9 6 19 -2 11 0 57 5
103 6 45 11 94 12 108 5 53 19 125 26 135 4 6 11 33 15 62 4 29 12 57 19 63 7
5 11 21 8 35 -2 14 0 25 6 25 5 0 12 15 15 32 6 42 25 102 82 267 32 91 45
143 41 162 -7 38 10 84 37 96 26 12 54 90 38 106 -6 6 6 25 35 52 27 27 44 52
44 67 0 12 14 50 30 82 17 32 30 65 30 72 0 7 6 15 13 17 7 3 5 6 -5 6 -23 1
-23 3 11 53 16 24 74 132 129 241 55 108 119 225 141 258 23 34 41 70 41 81 0
29 -31 89 -49 96 -9 3 -32 16 -51 28 -63 40 -91 40 -140 -1 -54 -45 -77 -74
-86 -110 -4 -16 -18 -44 -31 -63 -12 -19 -23 -47 -23 -61 0 -17 -11 -36 -29
-52 -21 -19 -31 -39 -36 -72 -4 -26 -10 -47 -14 -47 -4 0 -15 -28 -25 -62 -10
-35 -25 -88 -33 -118 -9 -30 -28 -76 -43 -101 -15 -25 -31 -60 -35 -77 -9 -45
-40 -104 -64 -126 -12 -11 -31 -36 -43 -55 -42 -69 -193 -267 -249 -326 -31
-33 -64 -75 -73 -92 -9 -18 -30 -43 -47 -55 -17 -13 -38 -36 -46 -52 -19 -37
-220 -236 -238 -236 -7 0 -20 -6 -27 -13 -27 -27 -105 -74 -148 -90 -96 -36
-181 -16 -233 55 -31 41 -33 164 -7 303 11 61 23 124 26 140 3 17 12 44 20 62
16 36 18 57 4 48 -16 -10 -12 11 5 25 11 9 14 22 9 44 -5 25 -2 34 22 53 26
20 28 25 16 44 -7 11 -11 24 -7 27 3 4 10 0 14 -7 7 -11 11 -9 20 7 16 29 14
37 -6 21 -15 -13 -16 -11 -9 23 4 20 13 50 21 65 8 15 15 33 15 40 0 7 5 23
12 37 9 22 14 24 26 13 13 -10 14 -9 2 10 -12 18 -10 30 17 95 17 40 36 88 43
106 7 17 16 32 20 32 3 0 6 10 6 23 -1 15 4 22 16 21 22 -2 45 52 31 74 -7 12
-3 32 16 74 l26 57 123 -4 122 -3 0 40 c0 57 -51 108 -107 108 -22 0 -43 3
-47 7 -3 4 12 24 34 44 37 34 40 40 28 59 -11 17 -11 22 2 30 8 5 11 12 8 15
-4 4 12 34 35 67 23 33 47 67 52 76 6 10 16 21 23 25 17 11 43 65 40 81 -2 8
16 35 39 60 25 28 40 52 37 61 -4 9 0 15 9 15 15 0 61 53 87 101 26 47 92 143
110 159 9 8 46 53 81 100 136 181 351 416 439 481 63 46 160 100 168 95 5 -3
12 -38 16 -78 3 -40 12 -100 19 -133 10 -51 15 -60 36 -63 43 -6 89 8 121 38
l32 30 -5 133 c-3 72 -6 133 -6 135 -4 15 -98 102 -110 102 -9 0 -25 6 -36 14
-20 13 -183 27 -220 19z m-1845 -124 c0 -6 -13 -24 -30 -41 -16 -16 -30 -33
-30 -36 0 -4 -19 -30 -43 -57 -23 -28 -55 -68 -70 -90 -100 -147 -135 -194
-140 -189 -3 3 8 27 24 54 16 26 29 51 29 55 0 4 15 26 33 48 17 23 31 46 30
52 -2 5 19 31 45 57 26 26 67 72 92 102 45 54 60 66 60 45z m-27 -113 c-26
-34 -53 -47 -53 -27 0 12 71 74 77 67 3 -2 -8 -21 -24 -40z m-1283 -53 c0 -17
-47 -16 -53 1 -4 9 3 13 24 12 16 -1 29 -7 29 -13z m74 2 c-4 -10 -15 -14 -33
-11 -38 6 -38 7 -16 16 33 14 55 12 49 -5z m76 -6 c0 -14 -17 -10 -23 5 -4 10
-1 13 9 9 7 -3 14 -9 14 -14z m-320 1 c0 -5 -7 -10 -15 -10 -8 0 -15 5 -15 10
0 6 7 10 15 10 8 0 15 -4 15 -10z m70 0 c0 -5 -11 -10 -25 -10 -14 0 -25 5
-25 10 0 6 11 10 25 10 14 0 25 -4 25 -10z m30 0 c0 -5 -4 -10 -10 -10 -5 0
-10 5 -10 10 0 6 5 10 10 10 6 0 10 -4 10 -10z m250 0 c0 -5 -4 -10 -10 -10
-5 0 -10 5 -10 10 0 6 5 10 10 10 6 0 10 -4 10 -10z m114 1 c3 -5 -4 -11 -15
-14 -26 -7 -89 3 -89 14 0 12 97 12 104 0z m84 -4 c6 3 12 0 12 -6 0 -15 -49
-26 -62 -13 -15 15 0 34 20 23 9 -4 23 -6 30 -4z m841 -16 c-6 -16 -17 -32
-25 -35 -8 -3 -14 -12 -14 -21 0 -8 -18 -33 -40 -55 -22 -22 -40 -46 -40 -53
0 -8 -9 -22 -20 -32 -11 -10 -20 -29 -20 -42 0 -16 -8 -27 -25 -33 -14 -5 -27
-20 -31 -35 -3 -14 -10 -25 -15 -25 -5 0 -9 -11 -9 -24 0 -15 -7 -27 -19 -31
-22 -7 -37 -38 -22 -43 18 -6 12 -22 -7 -22 -13 0 -23 -13 -33 -42 -7 -24 -20
-48 -28 -54 -8 -6 -11 -16 -7 -22 4 -7 -3 -17 -18 -24 -14 -6 -26 -18 -26 -27
0 -9 -9 -22 -21 -29 -13 -9 -19 -20 -16 -32 3 -11 -1 -21 -9 -24 -8 -3 -14
-15 -14 -26 0 -26 -27 -80 -40 -80 -6 0 -9 -4 -7 -9 1 -5 -10 -19 -24 -33 -15
-14 -28 -40 -32 -63 -4 -22 -11 -41 -17 -43 -5 -2 -10 -12 -10 -22 0 -10 -4
-21 -9 -24 -5 -3 -14 -20 -20 -37 -9 -27 -9 -30 4 -19 8 7 15 9 15 4 0 -16
-15 -31 -35 -38 -29 -10 -55 -49 -44 -67 7 -11 10 -10 15 8 3 12 12 24 20 27
10 4 11 -1 4 -22 -20 -55 20 9 82 133 84 168 105 205 127 229 10 12 33 50 50
86 18 36 56 103 86 150 30 47 62 100 71 118 9 17 20 32 25 32 5 0 13 8 16 18
9 23 41 69 81 115 17 20 32 42 32 48 0 7 20 34 45 60 25 27 50 60 57 74 20 44
31 29 24 -32 -4 -32 -11 -71 -16 -88 -4 -16 -18 -75 -30 -130 -11 -55 -25
-116 -30 -136 -6 -20 -10 -54 -10 -75 0 -22 -6 -49 -14 -60 -8 -11 -17 -38
-21 -60 -13 -74 -35 -190 -75 -390 -22 -110 -40 -213 -40 -227 0 -15 -7 -54
-16 -86 l-17 -59 -71 -11 c-177 -27 -216 -34 -291 -46 -44 -8 -116 -20 -160
-29 -44 -8 -81 -13 -83 -11 -1 1 31 68 71 148 40 80 67 143 60 140 -7 -3 -13
0 -13 7 0 22 -25 -14 -49 -70 -13 -30 -27 -59 -32 -64 -5 -6 -4 -15 2 -23 9
-10 8 -13 -5 -13 -10 0 -26 -22 -43 -56 -14 -31 -33 -58 -42 -61 -9 -4 -25
-13 -35 -22 -18 -15 -19 -15 -12 14 4 17 16 37 26 47 11 9 17 23 14 31 -3 8 3
21 13 28 10 8 26 37 36 64 19 54 22 78 7 55 -5 -8 -11 -12 -14 -9 -8 8 111
258 128 271 6 4 5 12 -3 21 -7 9 -8 18 -2 21 5 3 11 1 13 -6 2 -6 14 8 26 33
12 24 30 60 41 79 11 19 49 87 84 150 36 63 106 184 156 269 50 84 91 157 91
161 0 4 7 14 17 21 47 39 -40 -130 -122 -238 -19 -25 -42 -65 -51 -91 -16 -44
-118 -209 -137 -223 -5 -3 -9 -10 -9 -15 -1 -14 -17 -57 -30 -79 -40 -67 -138
-270 -137 -284 0 -13 2 -14 6 -1 3 8 9 17 12 20 3 3 24 43 46 90 22 47 46 91
52 98 7 7 16 25 19 39 4 14 40 82 80 150 41 68 74 126 74 128 0 2 20 38 45 79
25 42 45 81 45 86 0 6 4 10 9 10 5 0 19 19 30 43 11 24 37 60 56 81 19 21 35
42 35 47 0 32 244 379 266 379 2 0 -2 -13 -7 -29z m-774 5 c32 -12 36 -16 22
-22 -21 -8 -67 10 -67 26 0 12 -3 13 45 -4z m2393 -18 c-6 -18 -28 -21 -28 -4
0 9 7 16 16 16 9 0 14 -5 12 -12z m-3343 -8 c4 -6 -7 -10 -27 -9 -31 1 -32 1
-8 9 14 4 26 8 27 9 1 1 5 -3 8 -9z m-75 -20 c0 -5 -10 -10 -22 -10 -13 0 -33
-3 -46 -6 -18 -5 -21 -3 -16 10 7 18 84 24 84 6z m690 6 c0 -3 -4 -8 -10 -11
-5 -3 -10 -1 -10 4 0 6 5 11 10 11 6 0 10 -2 10 -4z m55 -6 c-3 -5 -15 -10
-26 -10 -10 0 -19 5 -19 10 0 6 12 10 26 10 14 0 23 -4 19 -10z m105 0 c0 -5
-4 -10 -10 -10 -5 0 -10 5 -10 10 0 6 5 10 10 10 6 0 10 -4 10 -10z m-950 -16
c0 -12 -7 -14 -30 -9 -20 4 -30 3 -30 -5 0 -8 -10 -10 -25 -8 -14 3 -28 1 -31
-3 -3 -5 -16 -9 -30 -9 -43 0 -16 19 37 26 27 4 52 11 55 15 9 16 54 10 54 -7z
m987 0 c-3 -3 -12 -4 -19 -1 -8 3 -5 6 6 6 11 1 17 -2 13 -5z m121 -12 c6 -18
-15 -14 -22 4 -4 10 -1 14 6 12 6 -2 14 -10 16 -16z m97 -12 c3 -5 -1 -10 -10
-10 -9 0 -13 5 -10 10 3 6 8 10 10 10 2 0 7 -4 10 -10z m-1400 -20 c-3 -5 -10
-10 -16 -10 -5 0 -9 5 -9 10 0 6 7 10 16 10 8 0 12 -4 9 -10z m1315 -15 c41
-9 84 -20 95 -25 11 -4 49 -18 85 -31 97 -34 240 -124 240 -151 0 -11 -68
-132 -125 -223 -25 -38 -45 -76 -45 -83 0 -7 -11 -28 -24 -45 -28 -37 -105
-171 -137 -237 -12 -25 -25 -52 -30 -60 -5 -8 -40 -78 -79 -155 -83 -163 -98
-185 -108 -168 -5 8 -8 -2 -8 -21 0 -19 -8 -53 -19 -77 -52 -123 -65 -149 -74
-149 -5 0 -11 -9 -14 -20 -4 -17 -14 -20 -55 -20 -31 0 -52 -5 -54 -12 -3 -8
-21 -12 -47 -11 -23 1 -54 -3 -69 -9 -40 -15 -152 -38 -189 -38 -17 0 -35 -4
-38 -10 -3 -5 -23 -10 -43 -10 -20 0 -58 -6 -83 -14 -25 -8 -80 -20 -122 -26
-86 -14 -110 -4 -101 41 2 13 1 17 -2 9 -13 -29 -44 -35 -44 -9 0 6 5 7 10 4
6 -3 10 -1 10 4 0 6 15 17 33 24 29 13 33 20 45 78 7 35 17 83 22 107 6 24 7
48 4 54 -4 6 -3 13 2 17 22 16 31 46 18 59 -19 18 -17 30 6 37 11 3 20 11 20
16 0 6 -4 8 -9 4 -16 -10 -25 18 -9 29 8 6 21 43 28 81 7 39 17 82 22 97 5 14
7 36 3 47 -3 11 0 31 7 43 7 13 16 52 20 88 4 36 9 83 12 105 3 22 8 72 11
110 4 39 12 84 20 100 7 17 15 78 19 137 6 110 33 289 44 299 9 8 135 29 202
33 131 9 476 -3 550 -19z m186 3 c4 -5 -6 -8 -22 -6 -15 2 -29 8 -31 14 -5 14
44 6 53 -8z m-1706 -42 c0 -3 -4 -8 -10 -11 -5 -3 -10 -1 -10 4 0 6 5 11 10
11 6 0 10 -2 10 -4z m3761 -119 c-16 -16 -26 0 -10 19 9 11 15 12 17 4 2 -6
-1 -17 -7 -23z m-1461 -382 c0 -19 -4 -35 -9 -35 -7 0 -8 53 -2 68 5 12 11 -5
11 -33z m-14 -92 c-18 -128 -30 -189 -36 -193 -3 -3 -12 -39 -18 -80 -15 -94
-36 -213 -55 -310 -8 -41 -13 -78 -11 -82 9 -15 -15 -17 -30 -3 -21 22 -9 144
13 130 5 -3 12 -1 15 4 4 5 2 12 -4 16 -13 8 -13 45 -1 45 6 0 7 15 5 33 -4
19 1 44 10 62 9 17 16 48 16 70 0 22 7 51 16 63 11 16 16 47 17 97 1 51 5 76
14 79 7 3 13 14 13 25 0 11 5 23 10 26 6 4 8 11 4 16 -8 14 3 39 17 39 7 0 9
-13 5 -37z m1174 -78 c0 -8 -4 -15 -10 -15 -5 0 -10 7 -10 15 0 8 5 15 10 15
6 0 10 -7 10 -15z m-2975 -225 c3 -5 1 -10 -4 -10 -6 0 -11 5 -11 10 0 6 2 10
4 10 3 0 8 -4 11 -10z m-20 -124 c-8 -48 -25 -63 -25 -22 0 30 18 81 26 73 3
-3 2 -26 -1 -51z m2775 -46 c0 -5 -4 -10 -10 -10 -5 0 -10 5 -10 10 0 6 5 10
10 10 6 0 10 -4 10 -10z m-1651 -62 c-7 -13 -14 -18 -16 -11 -3 7 1 22 8 35 7
13 14 18 16 11 3 -7 -1 -22 -8 -35z m-1153 -30 c-4 -35 -11 -67 -16 -73 -4 -5
-11 -36 -15 -67 -4 -32 -12 -58 -17 -58 -11 0 -2 84 12 110 4 8 11 38 14 65 8
59 15 85 23 85 3 0 2 -28 -1 -62z m1849 43 c3 -5 1 -12 -5 -16 -5 -3 -10 1
-10 9 0 18 6 21 15 7z m965 -1 c0 -5 -4 -10 -10 -10 -5 0 -10 5 -10 10 0 6 5
10 10 10 6 0 10 -4 10 -10z m-2780 -110 c0 -5 -2 -10 -4 -10 -3 0 -8 5 -11 10
-3 6 -1 10 4 10 6 0 11 -4 11 -10z m970 6 c0 -2 -8 -21 -18 -42 -39 -85 -63
-124 -72 -119 -5 3 1 24 15 45 14 22 25 47 25 55 0 18 31 64 43 65 4 0 7 -2 7
-4z m-920 -36 c0 -5 -4 -10 -10 -10 -5 0 -10 5 -10 10 0 6 5 10 10 10 6 0 10
-4 10 -10z m2518 -8 c2 -7 -36 -13 -105 -16 -159 -8 -187 -11 -200 -19 -6 -4
-24 -7 -40 -7 -29 0 -80 -3 -238 -15 -159 -13 -160 -13 -157 10 2 11 5 21 6
22 1 2 85 10 186 18 100 8 184 16 186 17 8 9 359 -1 362 -10z m42 -2 c0 -5 -5
-10 -11 -10 -5 0 -7 5 -4 10 3 6 8 10 11 10 2 0 4 -4 4 -10z m144 -1 c34 -16
23 -29 -23 -29 -44 0 -55 8 -40 27 14 16 30 17 63 2z m-2704 -26 c0 -5 -8 -17
-17 -28 -14 -18 -15 -18 -9 -2 3 10 6 23 6 28 0 5 5 9 10 9 6 0 10 -3 10 -7z
m1630 -24 c0 -19 -21 -50 -31 -44 -13 9 -11 42 4 48 20 9 27 8 27 -4z m-60 -8
c0 -24 -14 -41 -34 -41 -12 0 -26 -4 -31 -9 -21 -18 -63 -21 -79 -5 -15 14
-16 14 -16 0 0 -13 -13 -16 -74 -16 -41 0 -76 -4 -78 -9 -2 -7 -94 -18 -170
-21 -11 0 -15 -5 -12 -15 7 -17 -11 -21 -21 -5 -4 6 -14 9 -23 6 -43 -12 -102
-17 -102 -8 0 19 226 73 390 92 41 5 93 13 115 19 78 20 135 25 135 12z
m-1710 -68 c0 -19 -3 -24 -10 -17 -6 6 -8 18 -4 27 9 24 14 21 14 -10z m135
18 c3 -5 1 -12 -5 -16 -5 -3 -10 1 -10 9 0 18 6 21 15 7z m-25 -16 c0 -8 -4
-15 -10 -15 -5 0 -10 7 -10 15 0 8 5 15 10 15 6 0 10 -7 10 -15z m1648 -49
c-2 -19 0 -32 4 -30 4 3 8 -7 8 -23 -1 -27 -1 -27 -15 -9 -15 20 -15 20 -15 0
0 -18 -18 -175 -25 -219 -15 -100 -33 -287 -29 -300 3 -8 1 -15 -5 -15 -7 0
-11 -23 -11 -59 0 -33 -4 -93 -10 -133 -17 -129 -21 -268 -7 -269 9 0 9 -2 0
-6 -9 -3 -13 -36 -13 -111 -1 -125 -16 -209 -35 -191 -2 3 -6 62 -8 133 -3
101 -1 130 10 142 8 8 10 14 4 14 -15 0 -14 27 0 32 9 3 9 9 0 25 -21 40 -8
234 20 285 5 11 5 19 -1 23 -13 8 -13 75 0 128 5 23 17 107 25 187 8 80 19
170 24 200 5 30 14 94 21 143 13 82 15 87 38 87 22 0 24 -3 20 -34z m-1648 15
c0 -6 -4 -13 -10 -16 -5 -3 -10 1 -10 9 0 9 5 16 10 16 6 0 10 -4 10 -9z
m2514 -16 c-7 -16 -24 -21 -24 -6 0 8 7 13 27 20 1 1 0 -6 -3 -14z m-2634 -20
c0 -8 -4 -17 -10 -20 -6 -4 -10 5 -10 20 0 15 4 24 10 20 6 -3 10 -12 10 -20z
m1020 6 c0 -14 -18 -23 -30 -16 -6 4 -8 11 -5 16 8 12 35 12 35 0z m-70 -21
c0 -5 -4 -10 -10 -10 -5 0 -10 5 -10 10 0 6 5 10 10 10 6 0 10 -4 10 -10z
m-86 -25 c-4 -8 -10 -15 -15 -15 -5 0 -9 7 -9 15 0 8 7 15 15 15 9 0 12 -6 9
-15z m-34 -5 c0 -5 -4 -10 -10 -10 -5 0 -10 5 -10 10 0 6 5 10 10 10 6 0 10
-4 10 -10z m1860 1 c0 -18 -24 -30 -37 -20 -20 17 -16 27 12 27 14 0 25 -4 25
-7z m-2660 -21 c0 -11 -4 -20 -10 -20 -5 0 -10 9 -10 20 0 11 5 20 10 20 6 0
10 -9 10 -20z m60 -34 c0 -3 -4 -8 -10 -11 -5 -3 -10 -1 -10 4 0 6 5 11 10 11
6 0 10 -2 10 -4z m871 -32 c-5 -11 -17 -35 -26 -54 -8 -20 -28 -50 -44 -67
-20 -22 -30 -45 -34 -82 -3 -29 -16 -65 -27 -81 -19 -27 -23 -28 -37 -15 -13
14 -13 19 1 49 9 19 16 38 16 43 0 6 13 34 30 64 16 30 30 61 30 70 0 9 7 22
15 29 8 7 15 22 15 34 0 18 -3 16 -20 -12 -11 -18 -20 -37 -20 -42 0 -18 -44
-110 -52 -110 -4 0 -8 5 -8 11 0 14 42 113 51 119 3 3 9 15 13 28 4 12 12 23
17 23 12 2 28 6 34 9 3 1 9 3 14 4 5 0 13 4 17 9 14 13 26 -10 15 -29z m-2081
-33 c0 -12 -20 -25 -27 -18 -7 7 6 27 18 27 5 0 9 -4 9 -9z m1070 -68 c-1 -18
-21 -100 -29 -118 -5 -11 -17 -47 -26 -80 -9 -33 -23 -81 -31 -107 -8 -26 -14
-56 -14 -68 0 -11 -7 -34 -14 -49 -8 -15 -24 -63 -36 -107 -19 -75 -113 -334
-151 -421 -11 -23 -19 -46 -19 -52 0 -5 -11 -30 -24 -55 -13 -25 -32 -70 -41
-98 -10 -29 -24 -60 -31 -69 -8 -8 -14 -25 -14 -36 0 -11 -7 -26 -16 -34 -8
-7 -33 -44 -54 -83 -22 -39 -46 -80 -54 -91 -22 -30 -31 -10 -10 22 10 15 17
31 16 35 -3 10 36 86 63 123 12 17 26 41 30 55 4 14 19 42 32 63 13 21 26 51
30 67 3 16 12 35 19 41 8 6 14 21 14 33 0 11 7 30 15 40 8 11 15 30 15 42 0
13 4 25 9 28 5 3 12 18 16 33 4 16 20 55 36 88 16 33 29 66 29 73 0 7 27 94
60 193 33 99 70 217 81 262 12 45 32 114 45 153 13 39 24 80 24 91 0 11 3 23
7 26 9 9 23 9 23 0z m1830 -29 c0 -8 -4 -12 -10 -9 -5 3 -10 10 -10 16 0 5 5
9 10 9 6 0 10 -7 10 -16z m-2995 -4 c-3 -5 -10 -10 -16 -10 -5 0 -9 5 -9 10 0
6 7 10 16 10 8 0 12 -4 9 -10z m1195 -20 c0 -5 -4 -10 -10 -10 -5 0 -10 5 -10
10 0 6 5 10 10 10 6 0 10 -4 10 -10z m-1320 -10 c0 -5 -4 -10 -10 -10 -5 0
-10 5 -10 10 0 6 5 10 10 10 6 0 10 -4 10 -10z m3150 -10 c0 -5 -4 -10 -10
-10 -5 0 -10 5 -10 10 0 6 5 10 10 10 6 0 10 -4 10 -10z m-1859 -47 c-12 -20
-14 -14 -5 12 4 9 9 14 11 11 3 -2 0 -13 -6 -23z m63 -37 c-6 -16 -8 -17 -16
-2 -11 19 0 42 13 29 6 -6 7 -18 3 -27z m-1334 20 c0 -3 -4 -8 -10 -11 -5 -3
-10 -1 -10 4 0 6 5 11 10 11 6 0 10 -2 10 -4z m2072 -70 c-27 -49 -34 -35 -9
17 11 23 22 37 24 30 2 -6 -5 -27 -15 -47z m3013 44 c-3 -5 -12 -10 -18 -10
-7 0 -6 4 3 10 19 12 23 12 15 0z m-1275 -15 c6 -8 9 -19 5 -26 -6 -8 -10 -7
-16 2 -6 9 -9 -5 -9 -38 0 -28 -4 -55 -10 -58 -5 -3 -10 -15 -10 -26 0 -10 -4
-19 -9 -19 -5 0 -12 -21 -16 -47 -9 -64 -23 -96 -37 -87 -8 5 -9 -2 -5 -24 5
-24 3 -32 -7 -32 -14 0 -20 -19 -47 -137 -5 -27 -14 -57 -19 -68 -5 -11 -11
-40 -14 -65 -2 -24 -12 -49 -20 -56 -9 -6 -16 -16 -16 -22 0 -6 -4 -12 -9 -14
-5 -1 -2 -9 6 -17 12 -11 14 -11 11 2 -2 9 2 17 7 18 18 4 17 -32 0 -52 -13
-14 -16 -29 -12 -59 4 -29 2 -40 -8 -40 -24 0 -29 99 -11 197 29 159 41 211
49 219 4 4 7 16 7 26 0 10 9 28 20 40 11 12 20 32 20 45 0 13 4 31 10 41 14
25 67 192 75 232 13 72 38 97 65 65z m1218 -3 c2 -7 -3 -12 -12 -12 -9 0 -16
7 -16 16 0 17 22 14 28 -4z m-3780 -37 c-6 -14 -13 -23 -16 -21 -7 7 9 46 18
46 5 0 4 -11 -2 -25z m859 -19 c-2 -21 -12 -45 -27 -60 -15 -17 -19 -26 -10
-26 9 0 6 -7 -8 -20 -29 -27 -35 -25 -27 10 9 41 53 130 64 130 6 0 9 -16 8
-34z m-787 14 c0 -5 -4 -10 -10 -10 -5 0 -10 5 -10 10 0 6 5 10 10 10 6 0 10
-4 10 -10z m1810 -50 c0 -16 -4 -30 -10 -30 -11 0 -14 43 -3 53 11 12 13 8 13
-23z m-1829 -3 c-13 -13 -26 -3 -16 12 3 6 11 8 17 5 6 -4 6 -10 -1 -17z
m3676 17 c-3 -3 -12 -4 -19 -1 -8 3 -5 6 6 6 11 1 17 -2 13 -5z m43 -14 c0 -5
-4 -10 -10 -10 -5 0 -10 5 -10 10 0 6 5 10 10 10 6 0 10 -4 10 -10z m-3794
-37 c-11 -11 -19 6 -11 24 8 17 8 17 12 0 3 -10 2 -21 -1 -24z m-1396 -5 c0
-16 -3 -19 -11 -11 -6 6 -8 16 -5 22 11 17 16 13 16 -11z m2200 8 c0 -7 -8
-20 -17 -27 -15 -12 -16 -12 -10 4 4 10 7 23 7 28 0 5 5 9 10 9 6 0 10 -6 10
-14z m-823 -58 c-7 -10 -15 -18 -19 -18 -11 0 -10 5 4 35 8 17 14 22 19 14 4
-7 2 -20 -4 -31z m83 22 c0 -5 -4 -10 -10 -10 -5 0 -10 5 -10 10 0 6 5 10 10
10 6 0 10 -4 10 -10z m-1495 -37 c-6 -26 -21 -43 -37 -43 -13 0 -9 17 7 30 8
7 15 19 15 26 0 8 5 14 11 14 7 0 9 -10 4 -27z m5155 12 c0 -8 -4 -15 -9 -15
-13 0 -22 16 -14 24 11 11 23 6 23 -9z m-3675 -5 c3 -5 -1 -10 -10 -10 -9 0
-13 5 -10 10 3 6 8 10 10 10 2 0 7 -4 10 -10z m1840 1 c3 -5 1 -12 -5 -16 -5
-3 -10 1 -10 9 0 18 6 21 15 7z m1873 -28 c-24 -49 -33 -63 -40 -63 -6 0 -8 3
-6 8 24 48 33 62 40 62 6 0 8 -3 6 -7z m-3728 -23 c0 -11 -4 -20 -10 -20 -5 0
-10 9 -10 20 0 11 5 20 10 20 6 0 10 -9 10 -20z m760 -15 c0 -19 -4 -35 -10
-35 -5 0 -10 -9 -10 -20 0 -11 -7 -20 -15 -20 -19 0 -19 15 3 67 21 52 32 55
32 8z m-30 15 c0 -5 -4 -10 -10 -10 -5 0 -10 5 -10 10 0 6 5 10 10 10 6 0 10
-4 10 -10z m-2130 -18 c0 -5 -7 -17 -15 -28 -15 -19 -20 -8 -9 20 6 17 24 22
24 8z m4876 -27 c-16 -24 -36 -34 -36 -17 0 12 41 54 47 48 3 -3 -2 -17 -11
-31z m175 12 c-13 -13 -26 -3 -16 12 3 6 11 8 17 5 6 -4 6 -10 -1 -17z m-3671
-7 c0 -5 -5 -10 -11 -10 -5 0 -7 5 -4 10 3 6 8 10 11 10 2 0 4 -4 4 -10z m720
-9 c0 -6 -4 -13 -10 -16 -5 -3 -10 1 -10 9 0 9 5 16 10 16 6 0 10 -4 10 -9z
m2920 -25 c-7 -9 -10 -23 -6 -31 8 -21 -3 -45 -21 -45 -12 0 -14 8 -8 36 8 47
27 76 39 64 6 -6 4 -15 -4 -24z m-1781 -33 c0 -47 -2 -54 -10 -34 -8 21 -3 91
7 91 2 0 4 -26 3 -57z m-1869 27 c0 -11 -4 -20 -10 -20 -5 0 -10 9 -10 20 0
11 5 20 10 20 6 0 10 -9 10 -20z m-1497 -7 c-3 -10 -10 -22 -14 -28 -4 -5 -10
-27 -14 -47 -4 -21 -11 -38 -16 -38 -13 0 -11 28 5 63 8 18 16 40 20 50 3 9
10 17 15 17 6 0 8 -8 4 -17z m4947 -33 c0 -5 -4 -10 -10 -10 -5 0 -10 5 -10
10 0 6 5 10 10 10 6 0 10 -4 10 -10z m-4880 -30 c0 -5 -2 -10 -4 -10 -3 0 -8
5 -11 10 -3 6 -1 10 4 10 6 0 11 -4 11 -10z m1340 0 c0 -5 -4 -10 -10 -10 -5
0 -10 5 -10 10 0 6 5 10 10 10 6 0 10 -4 10 -10z m3486 -28 c-16 -30 -53 -68
-61 -60 -6 6 56 88 67 88 5 0 2 -12 -6 -28z m210 -62 c-7 -8 -11 -21 -9 -28 7
-18 -20 -72 -36 -72 -20 0 -7 85 19 117 11 14 20 33 21 42 0 9 5 3 10 -14 6
-21 5 -34 -5 -45z m-5156 20 c0 -5 -5 -10 -11 -10 -5 0 -7 5 -4 10 3 6 8 10
11 10 2 0 4 -4 4 -10z m4000 0 c0 -5 -5 -10 -11 -10 -5 0 -7 5 -4 10 3 6 8 10
11 10 2 0 4 -4 4 -10z m-2574 -37 c-10 -10 -19 5 -10 18 6 11 8 11 12 0 2 -7
1 -15 -2 -18z m71 5 c-3 -8 -6 -5 -6 6 -1 11 2 17 5 13 3 -3 4 -12 1 -19z
m3573 9 c0 -7 -4 -17 -9 -22 -12 -13 -51 -146 -51 -174 0 -12 -8 -36 -17 -54
-15 -30 -40 -131 -62 -252 -5 -27 -13 -63 -17 -79 -5 -20 -3 -27 4 -22 17 10
42 67 42 96 0 14 9 46 21 69 19 39 22 42 36 28 13 -13 13 -21 3 -53 -7 -22
-18 -45 -24 -53 -6 -8 -10 -22 -8 -33 2 -10 -4 -25 -12 -34 -21 -21 -21 -45 1
-37 14 5 15 1 10 -27 -4 -18 -7 -41 -7 -51 0 -11 -7 -19 -16 -19 -9 0 -18 -9
-21 -20 -3 -11 -12 -20 -20 -20 -8 0 -13 -6 -10 -12 2 -7 0 -21 -5 -32 -7 -13
-6 -21 3 -27 18 -11 21 -139 4 -139 -16 0 -40 -28 -32 -36 3 -4 18 -6 32 -6
26 0 29 -6 19 -32 -8 -22 -25 -20 -17 2 5 14 3 13 -10 -3 -13 -16 -18 -18 -29
-7 -19 19 -27 271 -11 340 7 29 13 73 13 96 0 28 5 46 13 49 10 4 13 20 9 63
-4 46 -1 60 12 69 12 9 15 24 13 59 -3 25 -1 46 4 46 5 0 6 7 2 15 -3 9 2 24
12 35 9 10 14 24 10 29 -3 6 1 14 9 17 9 3 16 13 16 21 0 10 -6 13 -17 9 -14
-6 -12 -2 5 17 14 15 22 36 22 60 0 20 5 37 10 37 6 0 10 12 10 27 0 15 10 37
22 50 24 26 38 29 38 10z m150 4 c0 -5 -7 -11 -14 -14 -10 -4 -13 -1 -9 9 6
15 23 19 23 5z m-235 -11 c3 -5 -1 -10 -9 -10 -9 0 -16 5 -16 10 0 6 4 10 9
10 6 0 13 -4 16 -10z m-65 -15 c0 -8 -10 -19 -21 -26 -22 -11 -21 -3 4 29 12
16 17 15 17 -3z m-65 -22 c-26 -40 -120 -133 -133 -133 -23 0 -12 19 33 55 25
21 54 52 66 71 11 19 28 34 36 34 13 0 13 -4 -2 -27z m335 -23 c0 -5 -4 -10
-10 -10 -5 0 -10 5 -10 10 0 6 5 10 10 10 6 0 10 -4 10 -10z m-325 -20 c-7
-11 -45 -33 -45 -26 0 2 7 12 16 20 17 18 39 22 29 6z m-4905 -19 c0 -11 -4
-23 -10 -26 -5 -3 -11 -18 -11 -33 -1 -19 -3 -21 -6 -9 -7 26 6 87 17 87 6 0
10 -9 10 -19z m1500 -21 c0 -5 -5 -10 -11 -10 -5 0 -7 5 -4 10 3 6 8 10 11 10
2 0 4 -4 4 -10z m-30 -10 c0 -5 -5 -10 -11 -10 -5 0 -7 5 -4 10 3 6 8 10 11
10 2 0 4 -4 4 -10z m3670 -19 c0 -20 -6 -30 -20 -34 -27 -7 -32 5 -17 37 16
35 37 33 37 -3z m-3715 10 c3 -5 1 -12 -5 -16 -5 -3 -10 1 -10 9 0 18 6 21 15
7z m2025 -46 c0 -13 -4 -27 -10 -30 -6 -4 -10 8 -10 30 0 22 4 34 10 30 6 -3
10 -17 10 -30z m1377 23 c-17 -41 -33 -68 -39 -68 -14 0 -8 43 9 62 18 21 38
24 30 6z m-3347 -15 c0 -5 -4 -15 -10 -23 -11 -18 -25 -7 -17 15 6 15 27 21
27 8z m1880 3 c0 -3 -4 -8 -10 -11 -5 -3 -10 -1 -10 4 0 6 5 11 10 11 6 0 10
-2 10 -4z m-3390 -36 c0 -11 -4 -20 -10 -20 -5 0 -10 9 -10 20 0 11 5 20 10
20 6 0 10 -9 10 -20z m1430 -1 c-7 -11 -14 -18 -17 -15 -8 8 5 36 17 36 7 0 7
-6 0 -21z m3724 -12 c-3 -12 -18 -34 -32 -50 -23 -24 -25 -31 -15 -56 14 -39
0 -63 -23 -40 -15 15 -15 23 -2 80 8 39 19 63 26 62 7 -2 12 3 12 11 0 15 20
26 33 19 4 -3 5 -14 1 -26z m-3677 -29 c-3 -8 -6 -5 -6 6 -1 11 2 17 5 13 3
-3 4 -12 1 -19z m1953 -19 c0 -22 -4 -38 -8 -35 -4 2 -7 17 -6 33 2 38 3 43 9
43 3 0 5 -18 5 -41z m-2054 -75 c-7 -28 -30 -57 -38 -48 -7 7 25 73 36 74 4 0
5 -12 2 -26z m62 -16 c-2 -6 -10 -14 -16 -16 -7 -2 -10 2 -6 12 7 18 28 22 22
4z m-28 -64 c0 -8 -5 -12 -10 -9 -6 4 -8 11 -5 16 9 14 15 11 15 -7z m2050
-25 c0 -11 -4 -18 -10 -14 -5 3 -7 12 -3 20 7 21 13 19 13 -6z m-2137 -9 c-5
-19 -23 -29 -23 -12 0 7 20 32 26 32 1 0 0 -9 -3 -20z m2029 -20 c4 -24 1 -30
-9 -25 -8 3 -17 5 -19 5 -2 0 -4 11 -4 25 0 36 27 32 32 -5z m1298 20 c0 -5
-4 -10 -10 -10 -5 0 -10 5 -10 10 0 6 5 10 10 10 6 0 10 -4 10 -10z m-3340
-49 c0 -4 -9 -17 -20 -29 -11 -12 -21 -25 -21 -29 -1 -5 -3 -12 -4 -18 -2 -5
-6 -22 -9 -37 -6 -27 -26 -40 -26 -17 0 21 63 148 71 143 5 -3 9 -9 9 -13z
m70 9 c0 -5 -4 -10 -10 -10 -5 0 -10 5 -10 10 0 6 5 10 10 10 6 0 10 -4 10
-10z m2079 -47 c-1 -39 -2 -43 -9 -23 -12 36 -12 70 0 70 6 0 10 -21 9 -47z
m-2166 -58 c-3 -9 -8 -14 -10 -11 -3 3 -2 9 2 15 9 16 15 13 8 -4z m35 -5 c-7
-11 -16 -20 -20 -20 -5 0 -3 9 4 20 7 11 16 20 20 20 5 0 3 -9 -4 -20z m-135
-117 c-8 -24 -24 -43 -34 -43 -15 0 -10 15 11 38 25 27 31 28 23 5z m2287 -57
c0 -3 -4 -8 -10 -11 -5 -3 -10 -1 -10 4 0 6 5 11 10 11 6 0 10 -2 10 -4z
m-110 -26 c-9 -5 -9 -9 -1 -14 6 -4 8 -18 5 -32 -3 -13 -2 -24 4 -24 5 0 13
-24 17 -52 8 -57 10 -68 21 -110 3 -16 2 -28 -3 -28 -10 0 -43 122 -43 158 0
11 -7 39 -15 63 -12 33 -13 44 -3 50 7 4 16 5 21 2 5 -3 4 -9 -3 -13z m-2240
-34 c0 -3 -4 -8 -10 -11 -5 -3 -10 -1 -10 4 0 6 5 11 10 11 6 0 10 -2 10 -4z
m-153 -153 c-9 -9 -20 -13 -24 -9 -4 4 -1 11 7 16 25 16 35 11 17 -7z m7 -37
c-6 -15 -34 -31 -34 -19 0 5 30 32 37 33 1 0 0 -6 -3 -14z m-139 -26 c-3 -5
-10 -10 -16 -10 -5 0 -9 5 -9 10 0 6 7 10 16 10 8 0 12 -4 9 -10z m75 -5 c-14
-17 -30 -20 -30 -6 0 5 8 12 18 14 9 3 19 5 21 6 2 0 -2 -6 -9 -14z m-60 -54
c0 -5 -7 -11 -15 -15 -15 -5 -20 5 -8 17 9 10 23 9 23 -2z m30 -11 c0 -5 -4
-10 -10 -10 -5 0 -10 5 -10 10 0 6 5 10 10 10 6 0 10 -4 10 -10z m-120 -60 c0
-5 -4 -10 -9 -10 -5 0 -18 -3 -28 -6 -16 -6 -16 -5 2 9 23 19 35 21 35 7z"/>
<path d="M6982 4633 c-7 -2 -17 -14 -23 -26 -11 -21 -10 -20 15 2 14 14 26 26
26 28 0 3 0 3 -18 -4z"/>
<path d="M6925 4569 c-11 -17 1 -21 15 -4 8 9 8 15 2 15 -6 0 -14 -5 -17 -11z"/>
<path d="M6844 4468 l-19 -23 23 19 c12 11 22 21 22 23 0 8 -8 2 -26 -19z"/>
<path d="M6847 4404 c-16 -19 -36 -51 -45 -72 -9 -20 -27 -51 -39 -69 -13 -17
-23 -36 -23 -42 0 -6 -8 -15 -18 -20 -10 -5 -24 -22 -32 -38 -8 -15 -20 -35
-27 -43 -73 -86 -198 -289 -191 -311 2 -7 26 24 53 67 43 70 90 141 159 239
12 16 47 62 79 103 31 40 57 83 57 96 0 12 14 44 31 70 36 58 34 69 -4 20z"/>
<path d="M6406 3843 c-6 -14 -5 -15 5 -6 7 7 10 15 7 18 -3 3 -9 -2 -12 -12z"/>
<path d="M6295 3090 c-3 -5 -2 -10 4 -10 5 0 13 5 16 10 3 6 2 10 -4 10 -5 0
-13 -4 -16 -10z"/>
<path d="M5953 2725 c-3 -9 -3 -18 -1 -21 3 -3 8 4 11 16 6 23 -1 27 -10 5z"/>
<path d="M5922 2677 c-18 -42 -15 -68 3 -33 9 17 14 37 12 45 -3 11 -7 7 -15
-12z"/>
<path d="M5866 2539 c-3 -8 -12 -41 -21 -74 -9 -33 -21 -64 -25 -70 -4 -5 -11
-32 -15 -60 -5 -41 -4 -46 6 -31 19 31 72 236 63 245 -2 2 -6 -2 -8 -10z"/>
</g>
</svg>
